<?xml version="1.0" encoding="UTF-8"?>
<?xml-stylesheet href="https://cdnjs.cloudflare.com/ajax/libs/font-awesome/6.5.2/css/all.min.css" type="text/css"?>
<svg aria-roledescription="er" role="graphics-document document" viewBox="0 0 738.4750366210938 510" style="max-width: 100%;" xmlns="http://www.w3.org/2000/svg" width="100%" id="graph-div" height="100%" xmlns:xlink="http://www.w3.org/1999/xlink"><style>#graph-div{font-family:"trebuchet ms",verdana,arial,sans-serif;font-size:16px;fill:#333;}#graph-div .error-icon{fill:#552222;}#graph-div .error-text{fill:#552222;stroke:#552222;}#graph-div .edge-thickness-normal{stroke-width:2px;}#graph-div .edge-thickness-thick{stroke-width:3.5px;}#graph-div .edge-pattern-solid{stroke-dasharray:0;}#graph-div .edge-pattern-dashed{stroke-dasharray:3;}#graph-div .edge-pattern-dotted{stroke-dasharray:2;}#graph-div .marker{fill:#333333;stroke:#333333;}#graph-div .marker.cross{stroke:#333333;}#graph-div svg{font-family:"trebuchet ms",verdana,arial,sans-serif;font-size:16px;}#graph-div .entityBox{fill:#ECECFF;stroke:#9370DB;}#graph-div .attributeBoxOdd{fill:#ffffff;stroke:#9370DB;}#graph-div .attributeBoxEven{fill:#f2f2f2;stroke:#9370DB;}#graph-div .relationshipLabelBox{fill:hsl(80, 100%, 96.2745098039%);opacity:0.7;background-color:hsl(80, 100%, 96.2745098039%);}#graph-div .relationshipLabelBox rect{opacity:0.5;}#graph-div .relationshipLine{stroke:#333333;}#graph-div .entityTitleText{text-anchor:middle;font-size:18px;fill:#333;}#graph-div #MD_PARENT_START{fill:#f5f5f5!important;stroke:#333333!important;stroke-width:1;}#graph-div #MD_PARENT_END{fill:#f5f5f5!important;stroke:#333333!important;stroke-width:1;}#graph-div :root{--mermaid-font-family:"trebuchet ms",verdana,arial,sans-serif;}</style><g></g><defs><marker orient="auto" markerHeight="240" markerWidth="190" refY="7" refX="0" id="MD_PARENT_START"><path d="M 18,7 L9,13 L1,7 L9,1 Z"></path></marker></defs><defs><marker orient="auto" markerHeight="28" markerWidth="20" refY="7" refX="19" id="MD_PARENT_END"><path d="M 18,7 L9,13 L1,7 L9,1 Z"></path></marker></defs><defs><marker orient="auto" markerHeight="18" markerWidth="18" refY="9" refX="0" id="ONLY_ONE_START"><path d="M9,0 L9,18 M15,0 L15,18" fill="none" stroke="gray"></path></marker></defs><defs><marker orient="auto" markerHeight="18" markerWidth="18" refY="9" refX="18" id="ONLY_ONE_END"><path d="M3,0 L3,18 M9,0 L9,18" fill="none" stroke="gray"></path></marker></defs><defs><marker orient="auto" markerHeight="18" markerWidth="30" refY="9" refX="0" id="ZERO_OR_ONE_START"><circle r="6" cy="9" cx="21" fill="white" stroke="gray"></circle><path d="M9,0 L9,18" fill="none" stroke="gray"></path></marker></defs><defs><marker orient="auto" markerHeight="18" markerWidth="30" refY="9" refX="30" id="ZERO_OR_ONE_END"><circle r="6" cy="9" cx="9" fill="white" stroke="gray"></circle><path d="M21,0 L21,18" fill="none" stroke="gray"></path></marker></defs><defs><marker orient="auto" markerHeight="36" markerWidth="45" refY="18" refX="18" id="ONE_OR_MORE_START"><path d="M0,18 Q 18,0 36,18 Q 18,36 0,18 M42,9 L42,27" fill="none" stroke="gray"></path></marker></defs><defs><marker orient="auto" markerHeight="36" markerWidth="45" refY="18" refX="27" id="ONE_OR_MORE_END"><path d="M3,9 L3,27 M9,18 Q27,0 45,18 Q27,36 9,18" fill="none" stroke="gray"></path></marker></defs><defs><marker orient="auto" markerHeight="36" markerWidth="57" refY="18" refX="18" id="ZERO_OR_MORE_START"><circle r="6" cy="18" cx="48" fill="white" stroke="gray"></circle><path d="M0,18 Q18,0 36,18 Q18,36 0,18" fill="none" stroke="gray"></path></marker></defs><defs><marker orient="auto" markerHeight="36" markerWidth="57" refY="18" refX="39" id="ZERO_OR_MORE_END"><circle r="6" cy="18" cx="9" fill="white" stroke="gray"></circle><path d="M21,18 Q39,0 57,18 Q39,36 21,18" fill="none" stroke="gray"></path></marker></defs><path marker-start="url(#ONLY_ONE_START)" marker-end="url(#ZERO_OR_MORE_END)" style="stroke: gray; fill: none;" d="M284.621,218.226L271.347,232.022C258.072,245.817,231.524,273.409,205.876,299.371C180.229,325.333,155.484,349.667,143.111,361.833L130.738,374" class="er relationshipLine"></path><path marker-start="url(#ONLY_ONE_START)" marker-end="url(#ZERO_OR_MORE_END)" style="stroke: gray; fill: none;" d="M364.221,251L364.221,259.333C364.221,267.667,364.221,284.333,364.221,301C364.221,317.667,364.221,334.333,364.221,342.667L364.221,351" class="er relationshipLine"></path><path marker-start="url(#ONLY_ONE_START)" marker-end="url(#ZERO_OR_MORE_END)" style="stroke: gray; fill: none;" d="M443.821,213.698L458.632,228.249C473.443,242.799,503.065,271.899,531.011,300.533C558.958,329.167,585.228,357.333,598.363,371.417L611.498,385.5" class="er relationshipLine"></path><path marker-start="url(#ONLY_ONE_START)" marker-end="url(#ZERO_OR_MORE_END)" style="stroke: gray; fill: none;" d="M83.45,182L83.45,201.833C83.45,221.667,83.45,261.333,83.45,293.333C83.45,325.333,83.45,349.667,83.45,361.833L83.45,374" class="er relationshipLine"></path><path marker-start="url(#ONLY_ONE_START)" marker-end="url(#ZERO_OR_MORE_END)" style="stroke: gray; fill: none;" d="M653.787,170.5L653.787,192.25C653.787,214,653.787,257.5,652.651,293.333C651.514,329.167,649.24,357.333,648.104,371.417L646.967,385.5" class="er relationshipLine"></path><g transform="translate(284.62083435058594,20 )" id="entity-CONCERT-365451b1-823c-59fc-98b7-fe1849abe6d9"><rect height="231" width="159.19999885559082" y="0" x="0" class="er entityBox"></rect><text transform="translate(79.59999942779541,12)" style="dominant-baseline: middle; text-anchor: middle; font-size: 12px;" y="0" x="0" id="text-entity-CONCERT-365451b1-823c-59fc-98b7-fe1849abe6d9" class="er entityLabel">CONCERT</text><rect height="23" width="44" y="24" x="0" class="er attributeBoxOdd"></rect><text transform="translate(5,35.5)" style="dominant-baseline: middle; font-size: 10.2px;" y="0" x="0" id="text-entity-CONCERT-365451b1-823c-59fc-98b7-fe1849abe6d9-attr-1-type" class="er entityLabel">int</text><rect height="23" width="91.5999984741211" y="24" x="44" class="er attributeBoxOdd"></rect><text transform="translate(49,35.5)" style="dominant-baseline: middle; font-size: 10.2px;" y="0" x="0" id="text-entity-CONCERT-365451b1-823c-59fc-98b7-fe1849abe6d9-attr-1-name" class="er entityLabel">concertID</text><rect height="23" width="23.600000381469727" y="24" x="135.5999984741211" class="er attributeBoxOdd"></rect><text transform="translate(140.5999984741211,35.5)" style="dominant-baseline: middle; font-size: 10.2px;" y="0" x="0" id="text-entity-CONCERT-365451b1-823c-59fc-98b7-fe1849abe6d9-attr-1-key" class="er entityLabel">PK</text><rect height="23" width="44" y="47" x="0" class="er attributeBoxEven"></rect><text transform="translate(5,58.5)" style="dominant-baseline: middle; font-size: 10.2px;" y="0" x="0" id="text-entity-CONCERT-365451b1-823c-59fc-98b7-fe1849abe6d9-attr-2-type" class="er entityLabel">varchar</text><rect height="23" width="91.5999984741211" y="47" x="44" class="er attributeBoxEven"></rect><text transform="translate(49,58.5)" style="dominant-baseline: middle; font-size: 10.2px;" y="0" x="0" id="text-entity-CONCERT-365451b1-823c-59fc-98b7-fe1849abe6d9-attr-2-name" class="er entityLabel">date_concert</text><rect height="23" width="23.600000381469727" y="47" x="135.5999984741211" class="er attributeBoxEven"></rect><text transform="translate(140.5999984741211,58.5)" style="dominant-baseline: middle; font-size: 10.2px;" y="0" x="0" id="text-entity-CONCERT-365451b1-823c-59fc-98b7-fe1849abe6d9-attr-2-key" class="er entityLabel"></text><rect height="23" width="44" y="70" x="0" class="er attributeBoxOdd"></rect><text transform="translate(5,81.5)" style="dominant-baseline: middle; font-size: 10.2px;" y="0" x="0" id="text-entity-CONCERT-365451b1-823c-59fc-98b7-fe1849abe6d9-attr-3-type" class="er entityLabel">varchar</text><rect height="23" width="91.5999984741211" y="70" x="44" class="er attributeBoxOdd"></rect><text transform="translate(49,81.5)" style="dominant-baseline: middle; font-size: 10.2px;" y="0" x="0" id="text-entity-CONCERT-365451b1-823c-59fc-98b7-fe1849abe6d9-attr-3-name" class="er entityLabel">venueName</text><rect height="23" width="23.600000381469727" y="70" x="135.5999984741211" class="er attributeBoxOdd"></rect><text transform="translate(140.5999984741211,81.5)" style="dominant-baseline: middle; font-size: 10.2px;" y="0" x="0" id="text-entity-CONCERT-365451b1-823c-59fc-98b7-fe1849abe6d9-attr-3-key" class="er entityLabel"></text><rect height="23" width="44" y="93" x="0" class="er attributeBoxEven"></rect><text transform="translate(5,104.5)" style="dominant-baseline: middle; font-size: 10.2px;" y="0" x="0" id="text-entity-CONCERT-365451b1-823c-59fc-98b7-fe1849abe6d9-attr-4-type" class="er entityLabel">varchar</text><rect height="23" width="91.5999984741211" y="93" x="44" class="er attributeBoxEven"></rect><text transform="translate(49,104.5)" style="dominant-baseline: middle; font-size: 10.2px;" y="0" x="0" id="text-entity-CONCERT-365451b1-823c-59fc-98b7-fe1849abe6d9-attr-4-name" class="er entityLabel">city</text><rect height="23" width="23.600000381469727" y="93" x="135.5999984741211" class="er attributeBoxEven"></rect><text transform="translate(140.5999984741211,104.5)" style="dominant-baseline: middle; font-size: 10.2px;" y="0" x="0" id="text-entity-CONCERT-365451b1-823c-59fc-98b7-fe1849abe6d9-attr-4-key" class="er entityLabel"></text><rect height="23" width="44" y="116" x="0" class="er attributeBoxOdd"></rect><text transform="translate(5,127.5)" style="dominant-baseline: middle; font-size: 10.2px;" y="0" x="0" id="text-entity-CONCERT-365451b1-823c-59fc-98b7-fe1849abe6d9-attr-5-type" class="er entityLabel">varchar</text><rect height="23" width="91.5999984741211" y="116" x="44" class="er attributeBoxOdd"></rect><text transform="translate(49,127.5)" style="dominant-baseline: middle; font-size: 10.2px;" y="0" x="0" id="text-entity-CONCERT-365451b1-823c-59fc-98b7-fe1849abe6d9-attr-5-name" class="er entityLabel">state</text><rect height="23" width="23.600000381469727" y="116" x="135.5999984741211" class="er attributeBoxOdd"></rect><text transform="translate(140.5999984741211,127.5)" style="dominant-baseline: middle; font-size: 10.2px;" y="0" x="0" id="text-entity-CONCERT-365451b1-823c-59fc-98b7-fe1849abe6d9-attr-5-key" class="er entityLabel"></text><rect height="23" width="44" y="139" x="0" class="er attributeBoxEven"></rect><text transform="translate(5,150.5)" style="dominant-baseline: middle; font-size: 10.2px;" y="0" x="0" id="text-entity-CONCERT-365451b1-823c-59fc-98b7-fe1849abe6d9-attr-6-type" class="er entityLabel">varchar</text><rect height="23" width="91.5999984741211" y="139" x="44" class="er attributeBoxEven"></rect><text transform="translate(49,150.5)" style="dominant-baseline: middle; font-size: 10.2px;" y="0" x="0" id="text-entity-CONCERT-365451b1-823c-59fc-98b7-fe1849abe6d9-attr-6-name" class="er entityLabel">country</text><rect height="23" width="23.600000381469727" y="139" x="135.5999984741211" class="er attributeBoxEven"></rect><text transform="translate(140.5999984741211,150.5)" style="dominant-baseline: middle; font-size: 10.2px;" y="0" x="0" id="text-entity-CONCERT-365451b1-823c-59fc-98b7-fe1849abe6d9-attr-6-key" class="er entityLabel"></text><rect height="23" width="44" y="162" x="0" class="er attributeBoxOdd"></rect><text transform="translate(5,173.5)" style="dominant-baseline: middle; font-size: 10.2px;" y="0" x="0" id="text-entity-CONCERT-365451b1-823c-59fc-98b7-fe1849abe6d9-attr-7-type" class="er entityLabel">varchar</text><rect height="23" width="91.5999984741211" y="162" x="44" class="er attributeBoxOdd"></rect><text transform="translate(49,173.5)" style="dominant-baseline: middle; font-size: 10.2px;" y="0" x="0" id="text-entity-CONCERT-365451b1-823c-59fc-98b7-fe1849abe6d9-attr-7-name" class="er entityLabel">extraInfo</text><rect height="23" width="23.600000381469727" y="162" x="135.5999984741211" class="er attributeBoxOdd"></rect><text transform="translate(140.5999984741211,173.5)" style="dominant-baseline: middle; font-size: 10.2px;" y="0" x="0" id="text-entity-CONCERT-365451b1-823c-59fc-98b7-fe1849abe6d9-attr-7-key" class="er entityLabel"></text><rect height="23" width="44" y="185" x="0" class="er attributeBoxEven"></rect><text transform="translate(5,196.5)" style="dominant-baseline: middle; font-size: 10.2px;" y="0" x="0" id="text-entity-CONCERT-365451b1-823c-59fc-98b7-fe1849abe6d9-attr-8-type" class="er entityLabel">varchar</text><rect height="23" width="91.5999984741211" y="185" x="44" class="er attributeBoxEven"></rect><text transform="translate(49,196.5)" style="dominant-baseline: middle; font-size: 10.2px;" y="0" x="0" id="text-entity-CONCERT-365451b1-823c-59fc-98b7-fe1849abe6d9-attr-8-name" class="er entityLabel">notes</text><rect height="23" width="23.600000381469727" y="185" x="135.5999984741211" class="er attributeBoxEven"></rect><text transform="translate(140.5999984741211,196.5)" style="dominant-baseline: middle; font-size: 10.2px;" y="0" x="0" id="text-entity-CONCERT-365451b1-823c-59fc-98b7-fe1849abe6d9-attr-8-key" class="er entityLabel"></text><rect height="23" width="44" y="208" x="0" class="er attributeBoxOdd"></rect><text transform="translate(5,219.5)" style="dominant-baseline: middle; font-size: 10.2px;" y="0" x="0" id="text-entity-CONCERT-365451b1-823c-59fc-98b7-fe1849abe6d9-attr-9-type" class="er entityLabel">varchar</text><rect height="23" width="91.5999984741211" y="208" x="44" class="er attributeBoxOdd"></rect><text transform="translate(49,219.5)" style="dominant-baseline: middle; font-size: 10.2px;" y="0" x="0" id="text-entity-CONCERT-365451b1-823c-59fc-98b7-fe1849abe6d9-attr-9-name" class="er entityLabel">acknowledgments</text><rect height="23" width="23.600000381469727" y="208" x="135.5999984741211" class="er attributeBoxOdd"></rect><text transform="translate(140.5999984741211,219.5)" style="dominant-baseline: middle; font-size: 10.2px;" y="0" x="0" id="text-entity-CONCERT-365451b1-823c-59fc-98b7-fe1849abe6d9-attr-9-key" class="er entityLabel"></text></g><g transform="translate(20,89 )" id="entity-SONGNAME-7f18835d-f4e4-5d66-89d3-fef20fe93981"><rect height="93" width="126.89999961853027" y="0" x="0" class="er entityBox"></rect><text transform="translate(63.44999980926514,12)" style="dominant-baseline: middle; text-anchor: middle; font-size: 12px;" y="0" x="0" id="text-entity-SONGNAME-7f18835d-f4e4-5d66-89d3-fef20fe93981" class="er entityLabel">SONGNAME</text><rect height="23" width="44" y="24" x="0" class="er attributeBoxOdd"></rect><text transform="translate(5,35.5)" style="dominant-baseline: middle; font-size: 10.2px;" y="0" x="0" id="text-entity-SONGNAME-7f18835d-f4e4-5d66-89d3-fef20fe93981-attr-1-type" class="er entityLabel">int</text><rect height="23" width="59.29999923706055" y="24" x="44" class="er attributeBoxOdd"></rect><text transform="translate(49,35.5)" style="dominant-baseline: middle; font-size: 10.2px;" y="0" x="0" id="text-entity-SONGNAME-7f18835d-f4e4-5d66-89d3-fef20fe93981-attr-1-name" class="er entityLabel">nameID</text><rect height="23" width="23.600000381469727" y="24" x="103.29999923706055" class="er attributeBoxOdd"></rect><text transform="translate(108.29999923706055,35.5)" style="dominant-baseline: middle; font-size: 10.2px;" y="0" x="0" id="text-entity-SONGNAME-7f18835d-f4e4-5d66-89d3-fef20fe93981-attr-1-key" class="er entityLabel">PK</text><rect height="23" width="44" y="47" x="0" class="er attributeBoxEven"></rect><text transform="translate(5,58.5)" style="dominant-baseline: middle; font-size: 10.2px;" y="0" x="0" id="text-entity-SONGNAME-7f18835d-f4e4-5d66-89d3-fef20fe93981-attr-2-type" class="er entityLabel">varchar</text><rect height="23" width="59.29999923706055" y="47" x="44" class="er attributeBoxEven"></rect><text transform="translate(49,58.5)" style="dominant-baseline: middle; font-size: 10.2px;" y="0" x="0" id="text-entity-SONGNAME-7f18835d-f4e4-5d66-89d3-fef20fe93981-attr-2-name" class="er entityLabel">songName</text><rect height="23" width="23.600000381469727" y="47" x="103.29999923706055" class="er attributeBoxEven"></rect><text transform="translate(108.29999923706055,58.5)" style="dominant-baseline: middle; font-size: 10.2px;" y="0" x="0" id="text-entity-SONGNAME-7f18835d-f4e4-5d66-89d3-fef20fe93981-attr-2-key" class="er entityLabel"></text><rect height="23" width="44" y="70" x="0" class="er attributeBoxOdd"></rect><text transform="translate(5,81.5)" style="dominant-baseline: middle; font-size: 10.2px;" y="0" x="0" id="text-entity-SONGNAME-7f18835d-f4e4-5d66-89d3-fef20fe93981-attr-3-type" class="er entityLabel">int</text><rect height="23" width="59.29999923706055" y="70" x="44" class="er attributeBoxOdd"></rect><text transform="translate(49,81.5)" style="dominant-baseline: middle; font-size: 10.2px;" y="0" x="0" id="text-entity-SONGNAME-7f18835d-f4e4-5d66-89d3-fef20fe93981-attr-3-name" class="er entityLabel">songID</text><rect height="23" width="23.600000381469727" y="70" x="103.29999923706055" class="er attributeBoxOdd"></rect><text transform="translate(108.29999923706055,81.5)" style="dominant-baseline: middle; font-size: 10.2px;" y="0" x="0" id="text-entity-SONGNAME-7f18835d-f4e4-5d66-89d3-fef20fe93981-attr-3-key" class="er entityLabel"></text></g><g transform="translate(27.558334350585938,374 )" id="entity-SONGPLAYED-cba296c7-684c-5a28-bfea-e5d0d55e4b58"><rect height="93" width="111.78333282470703" y="0" x="0" class="er entityBox"></rect><text transform="translate(55.891666412353516,12)" style="dominant-baseline: middle; text-anchor: middle; font-size: 12px;" y="0" x="0" id="text-entity-SONGPLAYED-cba296c7-684c-5a28-bfea-e5d0d55e4b58" class="er entityLabel">SONGPLAYED</text><rect height="23" width="24.038888931274414" y="24" x="0" class="er attributeBoxOdd"></rect><text transform="translate(5,35.5)" style="dominant-baseline: middle; font-size: 10.2px;" y="0" x="0" id="text-entity-SONGPLAYED-cba296c7-684c-5a28-bfea-e5d0d55e4b58-attr-1-type" class="er entityLabel">int</text><rect height="23" width="60.87222099304199" y="24" x="24.038888931274414" class="er attributeBoxOdd"></rect><text transform="translate(29.038888931274414,35.5)" style="dominant-baseline: middle; font-size: 10.2px;" y="0" x="0" id="text-entity-SONGPLAYED-cba296c7-684c-5a28-bfea-e5d0d55e4b58-attr-1-name" class="er entityLabel">songID</text><rect height="23" width="26.872222900390625" y="24" x="84.9111099243164" class="er attributeBoxOdd"></rect><text transform="translate(89.9111099243164,35.5)" style="dominant-baseline: middle; font-size: 10.2px;" y="0" x="0" id="text-entity-SONGPLAYED-cba296c7-684c-5a28-bfea-e5d0d55e4b58-attr-1-key" class="er entityLabel">PK</text><rect height="23" width="24.038888931274414" y="47" x="0" class="er attributeBoxEven"></rect><text transform="translate(5,58.5)" style="dominant-baseline: middle; font-size: 10.2px;" y="0" x="0" id="text-entity-SONGPLAYED-cba296c7-684c-5a28-bfea-e5d0d55e4b58-attr-2-type" class="er entityLabel">int</text><rect height="23" width="60.87222099304199" y="47" x="24.038888931274414" class="er attributeBoxEven"></rect><text transform="translate(29.038888931274414,58.5)" style="dominant-baseline: middle; font-size: 10.2px;" y="0" x="0" id="text-entity-SONGPLAYED-cba296c7-684c-5a28-bfea-e5d0d55e4b58-attr-2-name" class="er entityLabel">concertID</text><rect height="23" width="26.872222900390625" y="47" x="84.9111099243164" class="er attributeBoxEven"></rect><text transform="translate(89.9111099243164,58.5)" style="dominant-baseline: middle; font-size: 10.2px;" y="0" x="0" id="text-entity-SONGPLAYED-cba296c7-684c-5a28-bfea-e5d0d55e4b58-attr-2-key" class="er entityLabel">PK</text><rect height="23" width="24.038888931274414" y="70" x="0" class="er attributeBoxOdd"></rect><text transform="translate(5,81.5)" style="dominant-baseline: middle; font-size: 10.2px;" y="0" x="0" id="text-entity-SONGPLAYED-cba296c7-684c-5a28-bfea-e5d0d55e4b58-attr-3-type" class="er entityLabel">int</text><rect height="23" width="60.87222099304199" y="70" x="24.038888931274414" class="er attributeBoxOdd"></rect><text transform="translate(29.038888931274414,81.5)" style="dominant-baseline: middle; font-size: 10.2px;" y="0" x="0" id="text-entity-SONGPLAYED-cba296c7-684c-5a28-bfea-e5d0d55e4b58-attr-3-name" class="er entityLabel">orderSong</text><rect height="23" width="26.872222900390625" y="70" x="84.9111099243164" class="er attributeBoxOdd"></rect><text transform="translate(89.9111099243164,81.5)" style="dominant-baseline: middle; font-size: 10.2px;" y="0" x="0" id="text-entity-SONGPLAYED-cba296c7-684c-5a28-bfea-e5d0d55e4b58-attr-3-key" class="er entityLabel">PK</text></g><g transform="translate(301.62083435058594,351 )" id="entity-RECORDINGS-1728c5a9-b553-598c-bafd-f50e79dfe82b"><rect height="139" width="125.19999885559082" y="0" x="0" class="er entityBox"></rect><text transform="translate(62.59999942779541,12)" style="dominant-baseline: middle; text-anchor: middle; font-size: 12px;" y="0" x="0" id="text-entity-RECORDINGS-1728c5a9-b553-598c-bafd-f50e79dfe82b" class="er entityLabel">RECORDINGS</text><rect height="23" width="44" y="24" x="0" class="er attributeBoxOdd"></rect><text transform="translate(5,35.5)" style="dominant-baseline: middle; font-size: 10.2px;" y="0" x="0" id="text-entity-RECORDINGS-1728c5a9-b553-598c-bafd-f50e79dfe82b-attr-1-type" class="er entityLabel">int</text><rect height="23" width="57.599998474121094" y="24" x="44" class="er attributeBoxOdd"></rect><text transform="translate(49,35.5)" style="dominant-baseline: middle; font-size: 10.2px;" y="0" x="0" id="text-entity-RECORDINGS-1728c5a9-b553-598c-bafd-f50e79dfe82b-attr-1-name" class="er entityLabel">recID</text><rect height="23" width="23.600000381469727" y="24" x="101.5999984741211" class="er attributeBoxOdd"></rect><text transform="translate(106.5999984741211,35.5)" style="dominant-baseline: middle; font-size: 10.2px;" y="0" x="0" id="text-entity-RECORDINGS-1728c5a9-b553-598c-bafd-f50e79dfe82b-attr-1-key" class="er entityLabel">PK</text><rect height="23" width="44" y="47" x="0" class="er attributeBoxEven"></rect><text transform="translate(5,58.5)" style="dominant-baseline: middle; font-size: 10.2px;" y="0" x="0" id="text-entity-RECORDINGS-1728c5a9-b553-598c-bafd-f50e79dfe82b-attr-2-type" class="er entityLabel">int</text><rect height="23" width="57.599998474121094" y="47" x="44" class="er attributeBoxEven"></rect><text transform="translate(49,58.5)" style="dominant-baseline: middle; font-size: 10.2px;" y="0" x="0" id="text-entity-RECORDINGS-1728c5a9-b553-598c-bafd-f50e79dfe82b-attr-2-name" class="er entityLabel">concertID</text><rect height="23" width="23.600000381469727" y="47" x="101.5999984741211" class="er attributeBoxEven"></rect><text transform="translate(106.5999984741211,58.5)" style="dominant-baseline: middle; font-size: 10.2px;" y="0" x="0" id="text-entity-RECORDINGS-1728c5a9-b553-598c-bafd-f50e79dfe82b-attr-2-key" class="er entityLabel">FK</text><rect height="23" width="44" y="70" x="0" class="er attributeBoxOdd"></rect><text transform="translate(5,81.5)" style="dominant-baseline: middle; font-size: 10.2px;" y="0" x="0" id="text-entity-RECORDINGS-1728c5a9-b553-598c-bafd-f50e79dfe82b-attr-3-type" class="er entityLabel">int</text><rect height="23" width="57.599998474121094" y="70" x="44" class="er attributeBoxOdd"></rect><text transform="translate(49,81.5)" style="dominant-baseline: middle; font-size: 10.2px;" y="0" x="0" id="text-entity-RECORDINGS-1728c5a9-b553-598c-bafd-f50e79dfe82b-attr-3-name" class="er entityLabel">duration</text><rect height="23" width="23.600000381469727" y="70" x="101.5999984741211" class="er attributeBoxOdd"></rect><text transform="translate(106.5999984741211,81.5)" style="dominant-baseline: middle; font-size: 10.2px;" y="0" x="0" id="text-entity-RECORDINGS-1728c5a9-b553-598c-bafd-f50e79dfe82b-attr-3-key" class="er entityLabel"></text><rect height="23" width="44" y="93" x="0" class="er attributeBoxEven"></rect><text transform="translate(5,104.5)" style="dominant-baseline: middle; font-size: 10.2px;" y="0" x="0" id="text-entity-RECORDINGS-1728c5a9-b553-598c-bafd-f50e79dfe82b-attr-4-type" class="er entityLabel">varchar</text><rect height="23" width="57.599998474121094" y="93" x="44" class="er attributeBoxEven"></rect><text transform="translate(49,104.5)" style="dominant-baseline: middle; font-size: 10.2px;" y="0" x="0" id="text-entity-RECORDINGS-1728c5a9-b553-598c-bafd-f50e79dfe82b-attr-4-name" class="er entityLabel">sourceInfo</text><rect height="23" width="23.600000381469727" y="93" x="101.5999984741211" class="er attributeBoxEven"></rect><text transform="translate(106.5999984741211,104.5)" style="dominant-baseline: middle; font-size: 10.2px;" y="0" x="0" id="text-entity-RECORDINGS-1728c5a9-b553-598c-bafd-f50e79dfe82b-attr-4-key" class="er entityLabel"></text><rect height="23" width="44" y="116" x="0" class="er attributeBoxOdd"></rect><text transform="translate(5,127.5)" style="dominant-baseline: middle; font-size: 10.2px;" y="0" x="0" id="text-entity-RECORDINGS-1728c5a9-b553-598c-bafd-f50e79dfe82b-attr-5-type" class="er entityLabel">varchar</text><rect height="23" width="57.599998474121094" y="116" x="44" class="er attributeBoxOdd"></rect><text transform="translate(49,127.5)" style="dominant-baseline: middle; font-size: 10.2px;" y="0" x="0" id="text-entity-RECORDINGS-1728c5a9-b553-598c-bafd-f50e79dfe82b-attr-5-name" class="er entityLabel">url</text><rect height="23" width="23.600000381469727" y="116" x="101.5999984741211" class="er attributeBoxOdd"></rect><text transform="translate(106.5999984741211,127.5)" style="dominant-baseline: middle; font-size: 10.2px;" y="0" x="0" id="text-entity-RECORDINGS-1728c5a9-b553-598c-bafd-f50e79dfe82b-attr-5-key" class="er entityLabel"></text></g><g transform="translate(591.1874961853027,100.5 )" id="entity-MEMBERS-dd34cc44-828f-5e94-8bb0-8fd0493c4ab1"><rect height="70" width="125.19999885559082" y="0" x="0" class="er entityBox"></rect><text transform="translate(62.59999942779541,12)" style="dominant-baseline: middle; text-anchor: middle; font-size: 12px;" y="0" x="0" id="text-entity-MEMBERS-dd34cc44-828f-5e94-8bb0-8fd0493c4ab1" class="er entityLabel">MEMBERS</text><rect height="23" width="44" y="24" x="0" class="er attributeBoxOdd"></rect><text transform="translate(5,35.5)" style="dominant-baseline: middle; font-size: 10.2px;" y="0" x="0" id="text-entity-MEMBERS-dd34cc44-828f-5e94-8bb0-8fd0493c4ab1-attr-1-type" class="er entityLabel">int</text><rect height="23" width="57.599998474121094" y="24" x="44" class="er attributeBoxOdd"></rect><text transform="translate(49,35.5)" style="dominant-baseline: middle; font-size: 10.2px;" y="0" x="0" id="text-entity-MEMBERS-dd34cc44-828f-5e94-8bb0-8fd0493c4ab1-attr-1-name" class="er entityLabel">memberID</text><rect height="23" width="23.600000381469727" y="24" x="101.5999984741211" class="er attributeBoxOdd"></rect><text transform="translate(106.5999984741211,35.5)" style="dominant-baseline: middle; font-size: 10.2px;" y="0" x="0" id="text-entity-MEMBERS-dd34cc44-828f-5e94-8bb0-8fd0493c4ab1-attr-1-key" class="er entityLabel">PK</text><rect height="23" width="44" y="47" x="0" class="er attributeBoxEven"></rect><text transform="translate(5,58.5)" style="dominant-baseline: middle; font-size: 10.2px;" y="0" x="0" id="text-entity-MEMBERS-dd34cc44-828f-5e94-8bb0-8fd0493c4ab1-attr-2-type" class="er entityLabel">varchar</text><rect height="23" width="57.599998474121094" y="47" x="44" class="er attributeBoxEven"></rect><text transform="translate(49,58.5)" style="dominant-baseline: middle; font-size: 10.2px;" y="0" x="0" id="text-entity-MEMBERS-dd34cc44-828f-5e94-8bb0-8fd0493c4ab1-attr-2-name" class="er entityLabel">name</text><rect height="23" width="23.600000381469727" y="47" x="101.5999984741211" class="er attributeBoxEven"></rect><text transform="translate(106.5999984741211,58.5)" style="dominant-baseline: middle; font-size: 10.2px;" y="0" x="0" id="text-entity-MEMBERS-dd34cc44-828f-5e94-8bb0-8fd0493c4ab1-attr-2-key" class="er entityLabel"></text></g><g transform="translate(569.8083343505859,385.5 )" id="entity-BANDCOMPOSITION-0112ed4a-f409-522a-ba1b-e1695df0fe47"><rect height="70" width="148.66666412353516" y="0" x="0" class="er entityBox"></rect><text transform="translate(74.33333206176758,12)" style="dominant-baseline: middle; text-anchor: middle; font-size: 12px;" y="0" x="0" id="text-entity-BANDCOMPOSITION-0112ed4a-f409-522a-ba1b-e1695df0fe47" class="er entityLabel">BANDCOMPOSITION</text><rect height="23" width="36.33333269755045" y="24" x="0" class="er attributeBoxOdd"></rect><text transform="translate(5,35.5)" style="dominant-baseline: middle; font-size: 10.2px;" y="0" x="0" id="text-entity-BANDCOMPOSITION-0112ed4a-f409-522a-ba1b-e1695df0fe47-attr-1-type" class="er entityLabel">int</text><rect height="23" width="73.16666475931804" y="24" x="36.33333269755045" class="er attributeBoxOdd"></rect><text transform="translate(41.33333269755045,35.5)" style="dominant-baseline: middle; font-size: 10.2px;" y="0" x="0" id="text-entity-BANDCOMPOSITION-0112ed4a-f409-522a-ba1b-e1695df0fe47-attr-1-name" class="er entityLabel">memberID</text><rect height="23" width="39.166666666666664" y="24" x="109.4999974568685" class="er attributeBoxOdd"></rect><text transform="translate(114.4999974568685,35.5)" style="dominant-baseline: middle; font-size: 10.2px;" y="0" x="0" id="text-entity-BANDCOMPOSITION-0112ed4a-f409-522a-ba1b-e1695df0fe47-attr-1-key" class="er entityLabel">PK</text><rect height="23" width="36.33333269755045" y="47" x="0" class="er attributeBoxEven"></rect><text transform="translate(5,58.5)" style="dominant-baseline: middle; font-size: 10.2px;" y="0" x="0" id="text-entity-BANDCOMPOSITION-0112ed4a-f409-522a-ba1b-e1695df0fe47-attr-2-type" class="er entityLabel">int</text><rect height="23" width="73.16666475931804" y="47" x="36.33333269755045" class="er attributeBoxEven"></rect><text transform="translate(41.33333269755045,58.5)" style="dominant-baseline: middle; font-size: 10.2px;" y="0" x="0" id="text-entity-BANDCOMPOSITION-0112ed4a-f409-522a-ba1b-e1695df0fe47-attr-2-name" class="er entityLabel">concertID</text><rect height="23" width="39.166666666666664" y="47" x="109.4999974568685" class="er attributeBoxEven"></rect><text transform="translate(114.4999974568685,58.5)" style="dominant-baseline: middle; font-size: 10.2px;" y="0" x="0" id="text-entity-BANDCOMPOSITION-0112ed4a-f409-522a-ba1b-e1695df0fe47-attr-2-key" class="er entityLabel">PK</text></g><rect height="14" width="19.33333396911621" y="289.8194580078125" x="198.7276964187622" class="er relationshipLabelBox"></rect><text style="text-anchor: middle; dominant-baseline: middle; font-size: 12px;" y="296.8194580078125" x="208.3943634033203" id="rel31" class="er relationshipLabel">has</text><rect height="14" width="19.33333396911621" y="294" x="354.55434131622314" class="er relationshipLabelBox"></rect><text style="text-anchor: middle; dominant-baseline: middle; font-size: 12px;" y="301" x="364.22100830078125" id="rel32" class="er relationshipLabel">has</text><rect height="14" width="44" y="291.38092041015625" x="506.90826416015625" class="er relationshipLabelBox"></rect><text style="text-anchor: middle; dominant-baseline: middle; font-size: 12px;" y="298.38092041015625" x="528.9082641601562" id="rel33" class="er relationshipLabel">includes</text><rect height="14" width="44" y="271" x="61.44999694824219" class="er relationshipLabelBox"></rect><text style="text-anchor: middle; dominant-baseline: middle; font-size: 12px;" y="278" x="83.44999694824219" id="rel34" class="er relationshipLabel">includes</text><rect height="14" width="74" y="271.0936279296875" x="616.060302734375" class="er relationshipLabelBox"></rect><text style="text-anchor: middle; dominant-baseline: middle; font-size: 12px;" y="278.0936279296875" x="653.060302734375" id="rel35" class="er relationshipLabel">participates in</text></svg>